<?xml version="1.0" standalone="no"?>
<!DOCTYPE svg PUBLIC "-//W3C//DTD SVG 20010904//EN"
 "http://www.w3.org/TR/2001/REC-SVG-20010904/DTD/svg10.dtd">
<svg version="1.0" xmlns="http://www.w3.org/2000/svg"
 width="1280.000000pt" height="848.000000pt" viewBox="0 0 1280.000000 848.000000"
 preserveAspectRatio="xMidYMid meet">
<g transform="translate(0.000000,848.000000) scale(0.100000,-0.100000)"
fill="#009688" stroke="none">
<path d="M3836 8470 c-72 -13 -140 -37 -218 -76 -37 -19 -68 -35 -68 -37 0 -2
42 1 93 7 104 10 339 -2 661 -35 109 -11 204 -18 210 -16 30 10 -215 113 -341
142 -81 19 -268 28 -337 15z"/>
<path d="M1905 8379 c-119 -17 -251 -71 -367 -150 -78 -53 -79 -60 -6 -38 369
112 762 130 1075 50 174 -45 363 -127 556 -243 l120 -72 29 34 c37 45 36 83
-3 156 -22 43 -29 67 -25 88 5 26 4 28 -17 21 -12 -4 -75 -10 -139 -12 -148
-6 -247 9 -558 87 -339 84 -498 103 -665 79z"/>
<path d="M3455 8336 c-57 -18 -117 -50 -139 -75 -28 -31 -13 -26 102 29 122
58 138 78 37 46z"/>
<path d="M6195 7929 c-149 -43 -306 -140 -438 -271 -37 -38 -71 -68 -74 -68
-4 0 -70 31 -147 69 -78 38 -180 83 -227 99 -190 67 -406 94 -572 73 -88 -10
-252 -50 -244 -58 3 -2 90 -10 195 -18 367 -28 430 -46 605 -172 132 -96 205
-128 292 -128 89 0 122 16 280 136 229 174 375 236 715 306 l45 9 -55 19 c-85
28 -284 31 -375 4z"/>
<path d="M2500 7888 c-36 -4 -87 -14 -115 -23 -50 -16 -239 -105 -233 -110 2
-2 30 2 63 7 69 11 443 4 580 -11 118 -14 368 -32 372 -27 2 2 -31 22 -74 44
-188 98 -402 141 -593 120z"/>
<path d="M543 7790 c-70 -10 -187 -47 -248 -77 -61 -31 -188 -114 -182 -119 2
-3 59 9 125 26 247 62 347 75 582 74 186 0 229 -3 320 -22 218 -47 492 -159
700 -285 l75 -46 27 29 c42 45 44 71 14 158 -39 116 -42 111 81 167 58 27 101
51 95 53 -23 7 -143 -40 -182 -73 -92 -77 -287 -68 -711 34 -361 87 -524 106
-696 81z"/>
<path d="M9919 7770 c-41 -10 -153 -49 -248 -85 -292 -112 -391 -126 -574 -83
-131 31 -303 31 -410 -1 -43 -12 -108 -36 -145 -52 -65 -29 -222 -117 -222
-125 0 -2 30 11 68 28 165 75 299 104 435 96 45 -3 179 -20 296 -39 197 -30
221 -31 285 -20 81 13 190 62 345 155 126 76 179 103 246 127 68 24 24 23 -76
-1z"/>
<path d="M4415 7574 c-269 -29 -540 -132 -765 -292 -61 -44 -116 -74 -155 -86
-143 -43 -283 -126 -375 -220 -24 -25 -42 -46 -39 -46 3 0 33 13 66 29 50 25
225 91 239 91 2 0 -23 -36 -57 -80 -53 -70 -65 -80 -92 -80 -48 0 -136 -23
-231 -60 -93 -36 -104 -47 -35 -31 24 6 55 10 69 10 19 0 12 -5 -25 -20 l-50
-19 57 6 c31 3 82 2 115 -1 l58 -7 -38 -80 c-50 -105 -101 -260 -123 -380
l-18 -97 -70 -40 c-136 -77 -150 -81 -252 -65 -49 7 -170 32 -269 54 -202 46
-366 60 -470 41 -116 -22 -238 -94 -345 -206 l-55 -58 45 27 c75 46 201 102
290 130 224 71 431 53 665 -59 93 -45 248 -142 323 -202 24 -20 45 -34 47 -32
2 2 8 49 15 103 12 102 43 220 60 231 6 4 10 -42 10 -123 0 -153 25 -314 70
-454 16 -52 30 -97 30 -99 0 -3 -33 -2 -72 2 -40 4 -145 8 -233 8 -242 1 -424
-32 -610 -110 -57 -23 -127 -43 -190 -53 -612 -99 -1065 -227 -1400 -396 -126
-64 -308 -182 -385 -249 -41 -35 -26 -30 161 63 396 195 768 314 1185 378 137
21 182 23 549 23 530 0 626 -12 995 -121 348 -102 383 -116 459 -177 293 -239
622 -357 996 -357 367 0 697 116 980 343 273 219 461 524 540 876 13 57 26
105 27 107 15 14 317 52 673 84 239 22 492 51 630 74 58 10 73 15 55 19 -80
20 -327 30 -806 34 l-541 5 -6 111 c-6 120 -34 276 -67 371 -16 47 -17 61 -8
68 7 4 62 28 121 54 119 50 218 66 291 46 72 -20 22 6 -64 33 -62 20 -114 29
-191 33 -100 4 -111 3 -164 -22 -32 -14 -58 -25 -59 -24 -12 33 -73 139 -117
206 -226 340 -593 583 -996 662 -105 21 -354 34 -448 24z"/>
<path d="M11728 7363 c23 -2 61 -2 85 0 23 2 4 4 -43 4 -47 0 -66 -2 -42 -4z"/>
<path d="M11565 7353 c-56 -8 -147 -34 -202 -58 -92 -41 -126 -76 -182 -184
-79 -155 -134 -191 -381 -252 -242 -61 -318 -106 -400 -235 -22 -35 -40 -66
-40 -69 0 -3 15 2 33 11 17 10 137 55 265 101 128 45 271 99 318 118 51 21
101 35 127 35 23 0 58 8 77 18 29 14 36 25 46 67 14 66 34 104 110 206 104
140 191 211 288 235 l51 12 -40 0 c-22 -1 -53 -3 -70 -5z"/>
<path d="M10650 7244 c-8 -1 -62 -10 -120 -19 -272 -43 -670 -162 -1163 -349
-84 -32 -202 -91 -334 -167 -143 -82 -306 -163 -383 -190 -41 -14 -98 -24
-155 -27 l-90 -4 -195 97 c-107 54 -242 117 -300 140 -316 129 -700 227 -1076
275 -160 21 -457 40 -579 39 l-70 -2 70 -8 c39 -4 113 -13 165 -19 321 -37
678 -116 1160 -256 256 -75 301 -96 515 -244 192 -132 250 -167 331 -195 175
-62 322 -12 724 245 113 73 232 145 264 162 87 44 254 108 586 223 424 148
546 196 695 273 l60 31 -45 -1 c-25 0 -52 -2 -60 -4z"/>
<path d="M1823 6776 c-54 -14 -223 -90 -223 -102 0 -3 8 -3 18 1 22 9 154 45
167 45 5 0 -22 -15 -60 -34 -75 -37 -136 -76 -120 -76 6 0 34 9 64 20 90 35
244 70 348 80 212 20 449 -33 636 -142 37 -22 75 -37 83 -34 8 3 14 19 14 42
0 47 25 98 64 131 19 16 24 24 12 19 -19 -7 -19 -6 -1 13 17 20 13 19 -56 -5
-127 -44 -201 -43 -439 6 -231 48 -410 61 -507 36z"/>
<path d="M6520 6646 c0 -5 129 -66 139 -66 8 1 -63 39 -106 57 -18 7 -33 11
-33 9z"/>
<path d="M1055 6366 c-33 -8 -80 -22 -105 -31 -25 -9 -63 -20 -85 -25 -22 -5
-59 -16 -82 -24 -41 -15 -50 -14 -193 14 -116 23 -178 30 -268 30 -120 0 -155
-6 -255 -42 -71 -26 -68 -35 5 -13 78 24 205 45 269 45 73 0 142 -22 260 -80
148 -75 239 -95 239 -53 0 8 -7 28 -16 44 -8 17 -13 37 -11 44 8 19 90 27 327
34 l215 7 -57 27 c-69 34 -159 42 -243 23z"/>
<path d="M10685 6049 c-191 -28 -394 -140 -578 -320 l-92 -90 -160 80 c-88 44
-200 94 -250 111 -282 99 -561 115 -825 49 -112 -28 -121 -39 -34 -39 90 0
318 -17 414 -31 174 -24 245 -54 405 -169 117 -84 160 -109 231 -136 139 -52
221 -26 417 129 213 169 500 300 786 358 l65 12 -40 15 c-102 36 -225 47 -339
31z"/>
<path d="M9084 5410 c-233 -43 -302 -66 -473 -151 -225 -113 -248 -116 -418
-55 -102 37 -197 47 -339 36 -239 -20 -441 -96 -609 -230 -76 -61 -138 -126
-110 -115 278 106 425 144 585 151 139 7 354 -14 430 -41 25 -9 76 -23 113
-31 169 -35 260 -2 363 133 30 40 75 86 99 103 75 52 222 118 390 174 88 30
151 54 140 54 -11 0 -88 -13 -171 -28z"/>
<path d="M11908 5190 c-33 -9 -150 -64 -186 -88 -9 -6 4 -8 35 -5 26 3 123 -2
214 -11 92 -9 184 -16 205 -16 l39 1 -40 34 c-82 71 -187 104 -267 85z"/>
<path d="M10784 5102 c-64 -23 -156 -78 -191 -114 l-26 -27 72 30 c306 129
537 83 819 -161 45 -39 83 -70 83 -68 1 2 4 57 8 123 l6 120 73 40 c44 24 66
41 56 43 -26 6 -103 -28 -115 -50 -14 -26 -68 -48 -117 -48 -22 0 -124 27
-228 61 -166 53 -201 61 -289 65 -80 4 -110 1 -151 -14z"/>
<path d="M7218 4779 c-53 -8 -194 -51 -228 -70 -9 -5 41 -9 120 -9 74 0 207
-5 295 -11 219 -15 228 -13 135 32 -117 56 -212 73 -322 58z"/>
<path d="M5775 4721 c-72 -13 -139 -37 -225 -83 -74 -39 -116 -69 -75 -53 61
23 204 57 300 71 151 23 334 15 470 -20 93 -24 137 -43 393 -170 51 -25 95
-46 98 -46 2 0 4 8 4 18 0 11 11 24 25 30 29 13 31 26 10 75 -30 72 -25 79 75
111 108 35 127 46 83 46 -58 0 -133 -21 -163 -46 -60 -51 -182 -52 -406 -4
-55 12 -151 32 -214 46 -125 27 -296 38 -375 25z"/>
<path d="M6765 4249 c-22 -5 -80 -29 -130 -53 -49 -25 -110 -50 -134 -56 -26
-7 -57 -25 -73 -42 -17 -18 -47 -35 -75 -42 -56 -15 -93 -7 -328 72 -134 44
-145 46 -255 47 -104 0 -120 -3 -173 -27 -54 -26 -182 -116 -175 -124 2 -2 35
9 74 25 148 60 306 84 416 61 127 -26 286 -116 419 -238 31 -29 60 -52 63 -52
3 0 6 46 7 103 1 56 4 112 7 124 5 13 33 35 77 59 69 37 71 37 190 38 66 1
181 -3 255 -8 l135 -9 -30 32 c-36 39 -135 88 -190 95 -22 2 -58 0 -80 -5z"/>
<path d="M4855 4234 c-27 -8 -86 -24 -130 -35 -44 -12 -87 -27 -96 -35 -8 -8
-41 -19 -71 -25 -50 -10 -71 -8 -175 14 -186 41 -239 48 -352 49 -113 1 -175
-12 -279 -58 -64 -28 -65 -41 -2 -19 76 27 236 55 312 55 86 0 137 -18 311
-110 127 -66 183 -86 222 -76 26 7 26 7 19 75 -6 61 -4 70 12 79 43 22 175 33
371 30 195 -3 202 -2 180 14 -64 51 -222 71 -322 42z"/>
<path d="M9405 4225 c-305 -36 -583 -106 -871 -220 -330 -131 -396 -149 -564
-148 -138 0 -287 29 -560 107 -134 38 -295 3 -513 -111 -89 -47 -400 -244
-394 -249 1 -2 55 17 120 42 267 101 474 132 672 100 58 -10 180 -43 290 -81
215 -72 311 -91 423 -82 145 11 247 53 486 201 304 187 620 266 1068 266 397
0 816 -79 1166 -219 l53 -21 -25 32 c-57 75 -213 192 -341 255 -134 67 -258
104 -427 128 -126 18 -429 18 -583 0z"/>
<path d="M3391 3745 c-210 -22 -313 -39 -755 -126 -54 -10 -111 -19 -127 -19
-16 0 -29 -4 -29 -10 0 -6 28 -10 63 -10 228 0 1193 -156 1607 -260 455 -114
807 -261 1116 -466 124 -81 172 -131 271 -273 36 -53 91 -120 121 -148 l54
-53 77 0 c127 0 228 37 412 150 199 122 498 239 785 305 707 164 1244 232
1984 252 180 5 265 10 230 14 -697 85 -1013 105 -1540 96 -419 -7 -555 -20
-1060 -103 -118 -19 -267 -43 -330 -54 -264 -43 -570 -72 -626 -60 -57 13
-105 50 -264 205 -173 168 -264 234 -460 332 -200 100 -450 175 -730 219 -146
22 -617 28 -799 9z"/>
<path d="M1985 3589 c-342 -28 -649 -102 -870 -210 -44 -22 -71 -36 -60 -33
72 22 235 64 320 82 181 39 291 55 950 139 100 12 131 19 110 24 -42 9 -329 8
-450 -2z"/>
<path d="M11045 3451 c-44 -10 -165 -46 -270 -80 -239 -80 -335 -95 -494 -81
-293 25 -435 2 -618 -102 -86 -49 -90 -62 -7 -20 159 80 300 96 544 63 330
-45 310 -43 386 -27 77 16 145 47 324 150 63 37 141 76 173 88 31 11 57 22 57
24 0 5 -5 5 -95 -15z"/>
<path d="M12570 3090 c-14 -5 29 -6 95 -3 66 3 122 7 124 9 9 8 -195 2 -219
-6z"/>
<path d="M12490 3069 c-106 -28 -159 -44 -191 -60 -43 -21 -91 -74 -120 -131
-30 -59 -106 -136 -163 -165 -27 -14 -118 -42 -201 -63 -167 -42 -216 -62
-277 -118 -38 -34 -111 -132 -104 -139 1 -2 50 18 107 43 153 68 395 160 472
180 38 9 82 26 100 38 18 12 93 92 167 179 135 157 179 200 235 230 33 18 27
20 -25 6z"/>
<path d="M11645 2983 c-218 -21 -590 -122 -986 -269 -317 -118 -482 -191 -598
-267 -162 -107 -144 -102 -247 -58 -120 52 -238 80 -364 88 -87 5 -115 11
-161 34 -118 59 -436 155 -671 203 -188 39 -605 87 -723 85 -47 -1 -46 -2 20
-10 123 -15 217 -30 345 -55 300 -61 744 -186 854 -241 l76 -38 -102 -47 -103
-47 166 6 167 6 98 -60 c201 -124 299 -159 414 -150 97 7 166 38 337 153 85
58 189 122 232 143 118 60 426 179 751 291 247 85 614 223 629 236 5 5 -74 2
-134 -3z m-1866 -659 c10 -9 -96 -3 -109 6 -10 7 4 8 45 4 33 -4 62 -8 64 -10z"/>
<path d="M2350 2623 c-34 -3 -195 -35 -369 -72 l-85 -18 95 -12 c477 -61 907
-175 1129 -298 172 -95 252 -165 328 -283 30 -47 64 -93 76 -102 41 -34 76
-23 309 95 183 94 245 120 352 150 338 95 679 146 995 148 181 1 168 10 -47
33 -331 36 -621 45 -814 25 -57 -5 -225 -32 -374 -59 -333 -60 -420 -69 -463
-46 -17 9 -63 54 -103 101 -39 47 -101 108 -138 135 -125 94 -326 176 -491
200 -62 9 -325 11 -400 3z"/>
<path d="M1705 2533 c-172 -9 -328 -44 -459 -103 -74 -34 -85 -49 -18 -26 104
37 375 88 592 112 46 5 59 9 45 15 -20 8 -47 8 -160 2z"/>
<path d="M7317 2375 c-124 -24 -214 -62 -344 -149 -65 -43 -81 -62 -37 -46
113 43 394 97 568 110 377 26 731 -69 1110 -298 108 -65 118 -66 150 -11 23
39 20 61 -15 131 -22 44 -29 69 -25 90 6 29 5 29 -32 21 -59 -13 -300 -9 -377
6 -38 7 -167 37 -285 66 -118 30 -253 61 -300 70 -123 23 -317 28 -413 10z"/>
<path d="M8867 2326 c-57 -19 -135 -72 -123 -83 5 -5 142 58 186 85 45 28 22
27 -63 -2z"/>
<path d="M11725 1949 c-178 -27 -355 -123 -526 -286 l-78 -75 -143 71 c-366
181 -685 225 -983 136 -44 -13 -71 -24 -60 -24 173 -6 466 -39 553 -62 94 -25
136 -47 243 -125 128 -94 207 -129 294 -129 88 0 113 12 272 131 67 51 153
111 190 133 135 78 306 137 501 171 81 15 79 21 -15 44 -80 20 -177 26 -248
15z"/>
<path d="M7935 1889 c-81 -11 -172 -43 -275 -94 -47 -23 -101 -46 -120 -50
-54 -12 -120 -43 -155 -74 -24 -21 -51 -31 -108 -41 -99 -17 -274 4 -512 60
-418 99 -525 116 -688 107 -134 -7 -214 -26 -323 -77 -80 -37 -209 -118 -202
-126 3 -2 49 8 104 21 256 66 363 80 599 80 242 0 351 -17 555 -87 124 -43
349 -148 470 -221 l75 -45 23 21 c40 37 45 81 17 164 -40 118 -44 111 103 179
l127 59 181 3 c127 3 253 -2 420 -17 274 -23 374 -29 374 -21 0 10 -174 89
-252 115 -84 27 -248 56 -313 54 -22 -1 -67 -5 -100 -10z"/>
<path d="M1968 1733 c-16 -2 -28 -7 -28 -11 0 -4 49 -27 108 -51 286 -119 387
-178 528 -311 69 -65 103 -90 121 -90 14 0 54 14 89 31 63 31 63 31 241 33
198 1 243 -8 325 -66 l43 -31 -35 38 c-76 81 -221 173 -298 190 -54 11 -94 8
-196 -15 -68 -16 -109 -20 -142 -15 -64 9 -169 67 -306 167 -147 108 -202 130
-328 134 -52 1 -107 0 -122 -3z"/>
<path d="M10325 1399 c-166 -29 -293 -64 -397 -110 -278 -124 -290 -126 -423
-83 -125 40 -220 50 -344 36 -246 -27 -437 -110 -598 -259 -24 -22 -43 -42
-43 -46 0 -3 33 9 73 28 129 58 256 97 359 108 86 10 128 8 350 -16 139 -15
280 -28 312 -27 119 0 243 52 521 218 88 52 196 112 240 133 44 21 76 38 70
37 -5 0 -59 -9 -120 -19z"/>
<path d="M3454 1170 c66 -74 73 -80 48 -45 -11 17 -37 46 -58 65 -31 28 -29
24 10 -20z"/>
<path d="M8555 829 c-50 -12 -197 -60 -193 -64 2 -1 33 1 70 6 41 5 155 3 295
-5 125 -7 230 -12 232 -10 7 6 -108 55 -162 70 -58 15 -181 17 -242 3z"/>
<path d="M7215 762 c-75 -25 -220 -101 -165 -87 253 67 388 84 538 66 59 -7
145 -24 192 -38 87 -25 257 -101 342 -153 l48 -30 6 28 c21 92 29 109 69 149
23 24 41 43 39 43 -2 0 -39 -10 -81 -21 -111 -31 -177 -27 -437 25 -199 40
-245 46 -350 45 -104 0 -132 -4 -201 -27z"/>
<path d="M8310 750 c-18 -12 -2 -12 25 0 13 6 15 9 5 9 -8 0 -22 -4 -30 -9z"/>
<path d="M6520 374 c-29 -6 -199 -56 -282 -84 l-57 -19 -153 31 c-206 42 -355
43 -473 4 -73 -24 -143 -56 -90 -42 182 50 310 65 395 47 30 -6 113 -39 184
-73 93 -45 143 -63 182 -66 61 -5 68 6 38 58 -38 63 -9 70 306 79 l225 7 -57
27 c-57 28 -159 42 -218 31z"/>
<path d="M8150 366 c-19 -7 -98 -46 -175 -87 -169 -89 -176 -89 -370 -27 -194
63 -235 71 -326 66 -65 -4 -91 -11 -151 -41 -68 -35 -169 -110 -123 -92 183
72 283 91 390 76 146 -21 263 -82 415 -214 l55 -48 16 66 c25 98 58 156 105
182 37 22 50 23 263 23 253 0 251 -1 136 69 -47 29 -67 35 -128 37 -45 3 -85
-1 -107 -10z"/>
</g>
</svg>
